<svg width="311" height="324" viewBox="0 0 311 324" fill="none" xmlns="http://www.w3.org/2000/svg">
    <g clip-path="url(#clip0)">
        <path d="M179.816 12.3431L59.4678 38.1753L95.1461 204.521L215.495 178.689L179.816 12.3431Z" fill="#E0E0E0"/>
        <g opacity="0.5">
            <path opacity="0.5" d="M178.387 15.5921L62.1062 40.5513L96.5785 201.274L212.86 176.315L178.387 15.5921Z" fill="url(#paint0_linear)"/>
        </g>
        <path d="M177.159 17.0928L63.8386 41.4165L97.5493 198.588L210.87 174.265L177.159 17.0928Z" fill="#FAFAFA"/>
        <path d="M147.295 16.3757L91.0776 28.4424L93.9995 42.0653L150.217 29.9986L147.295 16.3757Z" fill="url(#paint1_linear)"/>
        <path d="M116.331 9.10349C111.99 10.0361 109.244 14.3949 110.199 18.8383C111.154 23.2816 115.443 26.133 119.775 25.2004C124.107 24.2677 126.862 19.9089 125.907 15.4656C124.952 11.0223 120.671 8.17087 116.331 9.10349ZM119.054 21.8108C118.137 22.0297 117.175 21.9703 116.292 21.6404C115.408 21.3104 114.643 20.7248 114.094 19.9582C113.544 19.1915 113.235 18.2785 113.206 17.3356C113.177 16.3926 113.43 15.4624 113.931 14.6635C114.433 13.8646 115.161 13.2332 116.022 12.8497C116.884 12.4662 117.84 12.348 118.769 12.5102C119.698 12.6724 120.558 13.1077 121.239 13.7604C121.919 14.4132 122.39 15.254 122.592 16.1756C122.731 16.7781 122.75 17.4021 122.647 18.0118C122.544 18.6216 122.322 19.205 121.994 19.7286C121.665 20.2522 121.236 20.7057 120.732 21.0631C120.227 21.4204 119.657 21.6745 119.054 21.8108Z" fill="url(#paint2_linear)"/>
        <path d="M146.577 15.9189L91.5444 27.7314L94.3375 40.7538L149.37 28.9413L146.577 15.9189Z" fill="#73AC05"/>
        <path d="M116.33 9.10395C114.809 9.43056 113.419 10.2011 112.336 11.3181C111.252 12.4351 110.524 13.8484 110.244 15.3793C109.963 16.9102 110.143 18.4899 110.76 19.9187C111.377 21.3475 112.403 22.5613 113.71 23.4064C115.016 24.2516 116.544 24.6902 118.099 24.6669C119.655 24.6435 121.169 24.1592 122.449 23.2752C123.73 22.3912 124.719 21.1472 125.293 19.7006C125.867 18.2539 125.999 16.6695 125.673 15.1477C125.456 14.1371 125.043 13.1792 124.456 12.3286C123.869 11.4779 123.121 10.7513 122.253 10.19C121.385 9.62882 120.416 9.24405 119.4 9.05769C118.384 8.87134 117.341 8.88706 116.33 9.10395ZM118.933 21.2477C118.055 21.4362 117.141 21.36 116.306 21.0287C115.471 20.6974 114.754 20.1259 114.244 19.3865C113.733 18.6471 113.454 17.773 113.441 16.8747C113.427 15.9765 113.68 15.0944 114.168 14.3401C114.656 13.5858 115.356 12.9931 116.181 12.637C117.005 12.2809 117.917 12.1774 118.8 12.3395C119.683 12.5017 120.498 12.9222 121.143 13.5479C121.787 14.1737 122.232 14.9765 122.42 15.8549C122.672 17.0326 122.447 18.2623 121.793 19.2736C121.139 20.285 120.11 20.9951 118.933 21.2477Z" fill="#73AC05"/>
        <path d="M235.723 32.9404H112.635V203.072H235.723V32.9404Z" fill="#E0E0E0"/>
        <g opacity="0.5">
            <path opacity="0.5" d="M233.644 35.8169H114.717V200.198H233.644V35.8169Z" fill="url(#paint3_linear)"/>
        </g>
        <path d="M232.129 37.0288H116.229V197.778H232.129V37.0288Z" fill="white"/>
        <path d="M203.08 30.0581H145.583V43.9911H203.08V30.0581Z" fill="url(#paint4_linear)"/>
        <path d="M174.331 16.4575C169.892 16.4575 166.293 20.1429 166.293 24.6905C166.293 29.2381 169.892 32.9235 174.331 32.9235C178.77 32.9235 182.37 29.2381 182.37 24.6905C182.37 20.1429 178.77 16.4575 174.331 16.4575ZM174.331 29.441C173.388 29.4634 172.459 29.2039 171.663 28.6957C170.868 28.1876 170.241 27.4537 169.865 26.5879C169.488 25.7221 169.378 24.7636 169.548 23.8348C169.718 22.906 170.161 22.049 170.821 21.3733C171.48 20.6977 172.326 20.2339 173.25 20.0413C174.174 19.8487 175.135 19.9359 176.009 20.2919C176.883 20.6479 177.632 21.2565 178.159 22.04C178.686 22.8234 178.967 23.7462 178.967 24.6905C178.976 25.9316 178.494 27.1258 177.625 28.0118C176.756 28.8978 175.572 29.4036 174.331 29.4184V29.441Z" fill="url(#paint5_linear)"/>
        <path d="M202.474 29.4604H146.188V42.7792H202.474V29.4604Z" fill="#73AC05"/>
        <path d="M174.331 16.4575C172.775 16.4575 171.254 16.9191 169.961 17.7838C168.667 18.6485 167.659 19.8775 167.063 21.3155C166.468 22.7535 166.312 24.3358 166.616 25.8623C166.919 27.3888 167.669 28.7911 168.769 29.8916C169.869 30.9922 171.271 31.7417 172.796 32.0454C174.322 32.349 175.904 32.1932 177.342 31.5975C178.779 31.0019 180.008 29.9932 180.872 28.6991C181.736 27.405 182.198 25.8835 182.198 24.327C182.198 22.2399 181.369 20.2383 179.894 18.7624C178.418 17.2866 176.418 16.4575 174.331 16.4575ZM174.331 28.869C173.434 28.8679 172.557 28.6008 171.811 28.1016C171.066 27.6023 170.485 26.8932 170.142 26.0639C169.799 25.2345 169.709 24.322 169.884 23.4416C170.059 22.5613 170.49 21.7525 171.124 21.1174C171.758 20.4823 172.566 20.0494 173.446 19.8733C174.326 19.6973 175.238 19.7859 176.068 20.1281C176.897 20.4703 177.607 21.0507 178.107 21.7961C178.607 22.5414 178.875 23.4182 178.877 24.3158C178.877 24.9125 178.759 25.5032 178.53 26.0543C178.301 26.6054 177.966 27.1061 177.544 27.5276C177.122 27.9491 176.621 28.2833 176.07 28.5111C175.518 28.7388 174.928 28.8556 174.331 28.8549V28.869Z" fill="#73AC05"/>
        <g opacity="0.5">
            <path opacity="0.5" d="M45.3598 207.67H44.3008V213.68H45.3598V207.67Z" fill="#47E6B1"/>
            <path opacity="0.5" d="M47.8354 211.206V210.147H41.8278V211.206H47.8354Z" fill="#47E6B1"/>
        </g>
        <g opacity="0.5">
            <path opacity="0.5" d="M168.222 0H167.163V6.00991H168.222V0Z" fill="#47E6B1"/>
            <path opacity="0.5" d="M170.698 3.53352V2.47412L164.69 2.47412V3.53352L170.698 3.53352Z" fill="#47E6B1"/>
        </g>
        <path opacity="0.5" d="M257.176 217.676C256.884 217.548 256.649 217.318 256.516 217.029C256.382 216.739 256.36 216.411 256.453 216.106C256.468 216.06 256.477 216.011 256.481 215.962C256.489 215.823 256.452 215.684 256.376 215.567C256.3 215.45 256.187 215.361 256.056 215.313C255.925 215.264 255.782 215.259 255.648 215.299C255.514 215.338 255.396 215.42 255.312 215.531C255.283 215.571 255.258 215.613 255.239 215.658C255.111 215.95 254.881 216.186 254.592 216.319C254.303 216.453 253.975 216.475 253.67 216.382C253.623 216.367 253.575 216.358 253.526 216.354C253.387 216.346 253.248 216.382 253.131 216.459C253.014 216.535 252.925 216.647 252.877 216.779C252.828 216.91 252.823 217.053 252.863 217.187C252.902 217.321 252.984 217.439 253.095 217.523C253.134 217.553 253.177 217.577 253.222 217.597C253.514 217.724 253.749 217.954 253.883 218.243C254.016 218.533 254.039 218.861 253.946 219.166C253.931 219.213 253.921 219.261 253.918 219.31C253.909 219.449 253.946 219.588 254.022 219.705C254.099 219.822 254.211 219.911 254.342 219.96C254.473 220.008 254.616 220.013 254.75 219.973C254.885 219.934 255.002 219.852 255.087 219.741C255.116 219.702 255.14 219.659 255.16 219.614C255.287 219.322 255.517 219.087 255.806 218.953C256.096 218.82 256.424 218.797 256.729 218.89C256.775 218.905 256.823 218.914 256.872 218.918C257.012 218.926 257.15 218.89 257.267 218.813C257.384 218.737 257.473 218.625 257.522 218.494C257.57 218.362 257.575 218.219 257.536 218.085C257.496 217.951 257.415 217.833 257.303 217.749C257.264 217.719 257.221 217.695 257.176 217.676Z" fill="#4D8AF0"/>
        <path opacity="0.5" d="M78.4933 159.898C78.2012 159.771 77.966 159.54 77.8325 159.251C77.6991 158.962 77.6766 158.633 77.7694 158.328C77.7844 158.282 77.7939 158.233 77.7976 158.185C77.806 158.045 77.7693 157.907 77.6928 157.79C77.6164 157.672 77.5043 157.583 77.3732 157.535C77.2421 157.486 77.0989 157.482 76.9648 157.521C76.8307 157.56 76.7129 157.642 76.6287 157.754C76.5995 157.793 76.5749 157.835 76.5555 157.88C76.4284 158.173 76.1982 158.408 75.909 158.541C75.6197 158.675 75.2915 158.697 74.9867 158.604C74.9401 158.589 74.8919 158.58 74.8431 158.576C74.7036 158.568 74.5651 158.605 74.4481 158.681C74.3311 158.758 74.2418 158.87 74.1935 159.001C74.1451 159.132 74.1403 159.275 74.1797 159.409C74.2191 159.544 74.3006 159.661 74.4121 159.746C74.4514 159.775 74.4939 159.799 74.5389 159.819C74.831 159.946 75.0661 160.176 75.1996 160.466C75.3331 160.755 75.3555 161.083 75.2627 161.388C75.2477 161.435 75.2383 161.483 75.2346 161.532C75.2262 161.672 75.2629 161.81 75.3393 161.927C75.4158 162.044 75.5278 162.133 75.6589 162.182C75.7901 162.23 75.9333 162.235 76.0673 162.196C76.2014 162.156 76.3193 162.075 76.4034 161.963C76.4327 161.924 76.4573 161.881 76.4766 161.836C76.6038 161.544 76.8339 161.309 77.1232 161.175C77.4125 161.042 77.7407 161.019 78.0455 161.112C78.0921 161.127 78.1403 161.137 78.1891 161.14C78.3286 161.149 78.4671 161.112 78.5841 161.036C78.7011 160.959 78.7903 160.847 78.8387 160.716C78.887 160.585 78.8919 160.441 78.8525 160.307C78.8131 160.173 78.7316 160.055 78.62 159.971C78.5808 159.942 78.5383 159.917 78.4933 159.898Z" fill="#FDD835"/>
        <path opacity="0.5" d="M227.321 19.2102C227.029 19.083 226.794 18.8528 226.661 18.5634C226.527 18.2741 226.505 17.9457 226.598 17.6408C226.613 17.5942 226.622 17.546 226.626 17.4971C226.634 17.3576 226.597 17.219 226.521 17.102C226.445 16.985 226.332 16.8957 226.201 16.8473C226.07 16.799 225.927 16.7941 225.793 16.8335C225.659 16.8729 225.541 16.9544 225.457 17.066C225.428 17.1053 225.403 17.1478 225.384 17.1928C225.256 17.485 225.026 17.7203 224.737 17.8538C224.448 17.9873 224.12 18.0098 223.815 17.917C223.768 17.902 223.72 17.8925 223.671 17.8888C223.532 17.8804 223.393 17.9171 223.276 17.9936C223.159 18.07 223.07 18.1822 223.022 18.3133C222.973 18.4445 222.968 18.5877 223.008 18.7219C223.047 18.856 223.129 18.9739 223.24 19.0581C223.279 19.0874 223.322 19.112 223.367 19.1313C223.659 19.2585 223.894 19.4887 224.028 19.7781C224.161 20.0675 224.184 20.3959 224.091 20.7007C224.076 20.7474 224.066 20.7956 224.063 20.8444C224.054 20.984 224.091 21.1225 224.167 21.2395C224.244 21.3566 224.356 21.4459 224.487 21.4942C224.618 21.5426 224.761 21.5474 224.895 21.5081C225.03 21.4687 225.147 21.3871 225.232 21.2755C225.261 21.2363 225.285 21.1937 225.305 21.1487C225.432 20.8565 225.662 20.6213 225.951 20.4877C226.241 20.3542 226.569 20.3318 226.874 20.4246C226.92 20.4396 226.968 20.449 227.017 20.4528C227.157 20.4612 227.295 20.4244 227.412 20.348C227.529 20.2715 227.618 20.1594 227.667 20.0282C227.715 19.8971 227.72 19.7538 227.681 19.6197C227.641 19.4856 227.56 19.3677 227.448 19.2835C227.409 19.2542 227.366 19.2296 227.321 19.2102Z" fill="#FDD835"/>
        <path opacity="0.5" d="M268.882 90.7262C270.053 90.7262 271.003 89.7763 271.003 88.6046C271.003 87.4328 270.053 86.4829 268.882 86.4829C267.711 86.4829 266.761 87.4328 266.761 88.6046C266.761 89.7763 267.711 90.7262 268.882 90.7262Z" fill="#F55F44"/>
        <path opacity="0.5" d="M104.986 212.497C106.157 212.497 107.106 211.547 107.106 210.375C107.106 209.203 106.157 208.253 104.986 208.253C103.814 208.253 102.865 209.203 102.865 210.375C102.865 211.547 103.814 212.497 104.986 212.497Z" fill="#F55F44"/>
        <path opacity="0.5" d="M247.102 136.585C248.273 136.585 249.223 135.635 249.223 134.463C249.223 133.292 248.273 132.342 247.102 132.342C245.93 132.342 244.981 133.292 244.981 134.463C244.981 135.635 245.93 136.585 247.102 136.585Z" fill="#F55F44"/>
        <path opacity="0.5" d="M64.5432 29.2692C65.7145 29.2692 66.664 28.3193 66.664 27.1475C66.664 25.9758 65.7145 25.0259 64.5432 25.0259C63.3719 25.0259 62.4224 25.9758 62.4224 27.1475C62.4224 28.3193 63.3719 29.2692 64.5432 29.2692Z" fill="#4D8AF0"/>
        <path opacity="0.5" d="M42.1208 87.1451C43.2922 87.1451 44.2417 86.1952 44.2417 85.0235C44.2417 83.8517 43.2922 82.9019 42.1208 82.9019C40.9495 82.9019 40 83.8517 40 85.0235C40 86.1952 40.9495 87.1451 42.1208 87.1451Z" fill="#47E6B1"/>
    </g>
    <path d="M54.6041 262V246.499H41.2945V262H44.5494V249.185H51.3707V262H54.6041ZM63.1922 262.247C66.6727 262.247 68.8963 260.023 68.8963 256.231C68.8963 252.493 66.6512 250.237 63.1922 250.237C59.7439 250.237 57.4881 252.504 57.4881 256.231C57.4881 260.013 59.7117 262.247 63.1922 262.247ZM63.1922 259.852C61.6561 259.852 60.6785 258.552 60.6785 256.242C60.6785 253.954 61.6668 252.633 63.1922 252.633C64.7283 252.633 65.7166 253.954 65.7166 256.242C65.7166 258.552 64.7283 259.852 63.1922 259.852ZM74.7236 257.059L78.6016 262H82.3936L77.5273 255.823L82.125 250.484H78.5371L74.7236 255.114H74.6377V250.484H71.501V262H74.6377V257.059H74.7236ZM87.6516 262.183C89.091 262.183 90.5197 261.463 91.1643 260.238H91.2287V262H94.2688V254.083C94.2688 251.763 92.3352 250.237 89.3811 250.237C86.3303 250.237 84.4289 251.773 84.3107 254.008H87.1789C87.3293 253.159 88.0705 252.579 89.2414 252.579C90.4338 252.579 91.1857 253.202 91.1857 254.276V255.039L88.2854 255.211C85.4064 255.383 83.7951 256.597 83.7951 258.691C83.7951 260.765 85.4602 262.183 87.6516 262.183ZM88.6828 259.916C87.6301 259.916 86.9211 259.379 86.9211 258.52C86.9211 257.703 87.5871 257.177 88.758 257.091L91.1857 256.94V257.778C91.1857 259.024 90.0578 259.916 88.6828 259.916ZM109.866 262H113.003V250.484H102.432V262H105.569V252.848H109.866V262ZM117.509 266.265C120.452 266.265 121.891 265.201 122.88 262.247L126.844 250.484H123.535L121.086 259.486H121.032L118.583 250.484H115.135L119.141 262C119.163 262.054 119.045 262.505 119.045 262.559C118.83 263.472 118.261 263.837 117.111 263.837C116.993 263.837 116.424 263.826 116.327 263.805V266.232C116.424 266.254 117.401 266.265 117.509 266.265ZM139.095 254.771C138.944 252.16 136.979 250.237 133.853 250.237C130.404 250.237 128.202 252.536 128.202 256.231C128.202 259.991 130.404 262.247 133.874 262.247C136.903 262.247 138.934 260.496 139.105 257.778H136.184C135.979 259.035 135.163 259.787 133.906 259.787C132.359 259.787 131.382 258.498 131.382 256.231C131.382 254.008 132.349 252.697 133.896 252.697C135.195 252.697 136.001 253.557 136.173 254.771H139.095ZM150.669 250.484H140.679V252.848H144.106V262H147.242V252.848H150.669V250.484ZM158.108 262.247C161.588 262.247 163.812 260.023 163.812 256.231C163.812 252.493 161.567 250.237 158.108 250.237C154.66 250.237 152.404 252.504 152.404 256.231C152.404 260.013 154.627 262.247 158.108 262.247ZM158.108 259.852C156.572 259.852 155.594 258.552 155.594 256.242C155.594 253.954 156.582 252.633 158.108 252.633C159.644 252.633 160.632 253.954 160.632 256.242C160.632 258.552 159.644 259.852 158.108 259.852ZM168.296 265.384L169.736 259.336H166.75L165.944 265.384H168.296ZM184.431 262H187.567V250.484H184.431V254.91H180.026V250.484H176.89V262H180.026V257.284H184.431V262ZM195.876 262.247C199.357 262.247 201.58 260.023 201.58 256.231C201.58 252.493 199.335 250.237 195.876 250.237C192.428 250.237 190.172 252.504 190.172 256.231C190.172 260.013 192.396 262.247 195.876 262.247ZM195.876 259.852C194.34 259.852 193.362 258.552 193.362 256.242C193.362 253.954 194.351 252.633 195.876 252.633C197.412 252.633 198.401 253.954 198.401 256.242C198.401 258.552 197.412 259.852 195.876 259.852ZM212.569 257.059L216.447 262H220.239L215.373 255.823L219.97 250.484H216.382L212.569 255.114H212.483V250.484H209.346V262H212.483V257.059H212.569ZM227.151 262.247C230.632 262.247 232.855 260.023 232.855 256.231C232.855 252.493 230.61 250.237 227.151 250.237C223.703 250.237 221.447 252.504 221.447 256.231C221.447 260.013 223.671 262.247 227.151 262.247ZM227.151 259.852C225.615 259.852 224.638 258.552 224.638 256.242C224.638 253.954 225.626 252.633 227.151 252.633C228.687 252.633 229.676 253.954 229.676 256.242C229.676 258.552 228.687 259.852 227.151 259.852ZM243.484 252.848V250.484H235.46V262H238.597V252.848H243.484ZM247.217 264.976V262H254.962V264.976H257.82V259.626H256.112V250.484H246.895L246.519 256.274C246.411 257.832 246.089 259.153 245.251 259.626H244.37V264.976H247.217ZM252.986 259.626H248.442V259.54C248.957 258.767 249.194 257.703 249.279 256.479L249.537 252.837H252.986V259.626ZM263.411 262.183C264.85 262.183 266.279 261.463 266.923 260.238H266.988V262H270.028V254.083C270.028 251.763 268.094 250.237 265.14 250.237C262.089 250.237 260.188 251.773 260.07 254.008H262.938C263.088 253.159 263.829 252.579 265 252.579C266.193 252.579 266.945 253.202 266.945 254.276V255.039L264.044 255.211C261.165 255.383 259.554 256.597 259.554 258.691C259.554 260.765 261.219 262.183 263.411 262.183ZM264.442 259.916C263.389 259.916 262.68 259.379 262.68 258.52C262.68 257.703 263.346 257.177 264.517 257.091L266.945 256.94V257.778C266.945 259.024 265.817 259.916 264.442 259.916ZM40.2393 290C42.8496 290 44.4824 288.689 44.4824 286.67C44.4824 285.23 43.4189 284.178 41.8828 283.984V283.898C43.0645 283.716 43.9668 282.642 43.9668 281.406C43.9668 279.58 42.5273 278.484 40.1318 278.484H34.3633V290H40.2393ZM37.4463 280.472H39.2832C40.3145 280.472 40.8945 280.955 40.8945 281.814C40.8945 282.685 40.2715 283.168 39.1221 283.168H37.4463V280.472ZM37.4463 284.983H39.2832C40.6152 284.983 41.3242 285.499 41.3242 286.477C41.3242 287.476 40.6475 288.013 39.4229 288.013H37.4463V284.983ZM58.1301 290H61.2561V278.484H58.1301V290ZM47.173 290H52.5441C55.2619 290 57.0021 288.41 57.0021 285.907C57.0021 283.404 55.2619 281.814 52.5441 281.814H50.3098V278.484H47.173V290ZM52.0285 284.124C53.1564 284.124 53.8977 284.833 53.8977 285.886C53.8977 286.938 53.1672 287.658 52.0285 287.658H50.3098V284.124H52.0285ZM74.7154 290.247C78.1959 290.247 80.4195 288.023 80.4195 284.231C80.4195 280.493 78.1744 278.237 74.7154 278.237C71.2672 278.237 69.0113 280.504 69.0113 284.231C69.0113 288.013 71.235 290.247 74.7154 290.247ZM74.7154 287.852C73.1793 287.852 72.2018 286.552 72.2018 284.242C72.2018 281.954 73.19 280.633 74.7154 280.633C76.2516 280.633 77.2398 281.954 77.2398 284.242C77.2398 286.552 76.2516 287.852 74.7154 287.852ZM92.0369 278.484H82.0467V280.848H85.4734V290H88.6102V280.848H92.0369V278.484ZM104.664 282.771C104.514 280.16 102.548 278.237 99.4219 278.237C95.9736 278.237 93.7715 280.536 93.7715 284.231C93.7715 287.991 95.9736 290.247 99.4434 290.247C102.473 290.247 104.503 288.496 104.675 285.778H101.753C101.549 287.035 100.732 287.787 99.4756 287.787C97.9287 287.787 96.9512 286.498 96.9512 284.231C96.9512 282.008 97.918 280.697 99.4648 280.697C100.765 280.697 101.57 281.557 101.742 282.771H104.664ZM110.405 285.059L114.283 290H118.075L113.209 283.823L117.807 278.484H114.219L110.405 283.114H110.32V278.484H107.183V290H110.32V285.059H110.405ZM123.333 290.183C124.773 290.183 126.202 289.463 126.846 288.238H126.911V290H129.951V282.083C129.951 279.763 128.017 278.237 125.063 278.237C122.012 278.237 120.111 279.773 119.993 282.008H122.861C123.011 281.159 123.752 280.579 124.923 280.579C126.116 280.579 126.868 281.202 126.868 282.276V283.039L123.967 283.211C121.088 283.383 119.477 284.597 119.477 286.691C119.477 288.765 121.142 290.183 123.333 290.183ZM124.365 287.916C123.312 287.916 122.603 287.379 122.603 286.52C122.603 285.703 123.269 285.177 124.44 285.091L126.868 284.94V285.778C126.868 287.024 125.74 287.916 124.365 287.916ZM140.494 290H143.63V278.484H140.494V282.91H136.089V278.484H132.953V290H136.089V285.284H140.494V290ZM149.759 290L154.324 282.717H154.41V290H157.493V278.484H154.421L149.855 285.671H149.769V278.484H146.686V290H149.759ZM167.252 278.302C165.587 278.302 164.309 279.14 163.675 280.493H163.621V278.484H160.527V293.76H163.664V288.066H163.729C164.33 289.366 165.619 290.183 167.295 290.183C170.174 290.183 171.957 287.948 171.957 284.242C171.957 280.525 170.163 278.302 167.252 278.302ZM166.188 287.658C164.652 287.658 163.653 286.326 163.643 284.242C163.653 282.18 164.663 280.815 166.188 280.815C167.757 280.815 168.745 282.158 168.745 284.242C168.745 286.337 167.768 287.658 166.188 287.658ZM175.733 294.265C178.676 294.265 180.115 293.201 181.104 290.247L185.068 278.484H181.759L179.31 287.486H179.256L176.807 278.484H173.359L177.365 290C177.387 290.054 177.269 290.505 177.269 290.559C177.054 291.472 176.485 291.837 175.335 291.837C175.217 291.837 174.648 291.826 174.551 291.805V294.232C174.648 294.254 175.625 294.265 175.733 294.265ZM194.472 286.477C194.193 287.357 193.312 287.927 192.152 287.927C190.562 287.927 189.509 286.799 189.509 285.155V284.962H197.448V284.006C197.448 280.504 195.331 278.237 191.991 278.237C188.585 278.237 186.426 280.622 186.426 284.296C186.426 287.98 188.553 290.247 192.098 290.247C194.945 290.247 197.007 288.732 197.351 286.477H194.472ZM192.023 280.558C193.419 280.558 194.375 281.567 194.429 283.039H189.552C189.649 281.6 190.648 280.558 192.023 280.558ZM209.001 278.484H199.01V280.848H202.437V290H205.574V280.848H209.001V278.484ZM218.781 286.477C218.502 287.357 217.621 287.927 216.461 287.927C214.871 287.927 213.818 286.799 213.818 285.155V284.962H221.757V284.006C221.757 280.504 219.64 278.237 216.3 278.237C212.894 278.237 210.735 280.622 210.735 284.296C210.735 287.98 212.862 290.247 216.407 290.247C219.254 290.247 221.316 288.732 221.66 286.477H218.781ZM216.332 280.558C217.728 280.558 218.684 281.567 218.738 283.039H213.861C213.958 281.6 214.957 280.558 216.332 280.558ZM239.728 290V278.484H236.591V282.953C236.204 283.437 235.452 283.759 234.464 283.759C233.175 283.759 232.445 282.975 232.445 281.653V278.484H229.308V282.104C229.308 284.715 230.898 286.358 233.551 286.358C234.851 286.358 235.828 285.95 236.473 285.306H236.591V290H239.728ZM250.378 286.477C250.099 287.357 249.218 287.927 248.058 287.927C246.468 287.927 245.415 286.799 245.415 285.155V284.962H253.354V284.006C253.354 280.504 251.238 278.237 247.897 278.237C244.492 278.237 242.332 280.622 242.332 284.296C242.332 287.98 244.459 290.247 248.004 290.247C250.851 290.247 252.913 288.732 253.257 286.477H250.378ZM247.929 280.558C249.326 280.558 250.282 281.567 250.335 283.039H245.458C245.555 281.6 246.554 280.558 247.929 280.558ZM259.181 285.059L263.059 290H266.851L261.985 283.823L266.583 278.484H262.995L259.181 283.114H259.095V278.484H255.959V290H259.095V285.059H259.181ZM271.099 293.384L272.539 287.336H269.553L268.747 293.384H271.099ZM58.8549 318.247C62.3354 318.247 64.559 316.023 64.559 312.231C64.559 308.493 62.3139 306.237 58.8549 306.237C55.4066 306.237 53.1508 308.504 53.1508 312.231C53.1508 316.013 55.3744 318.247 58.8549 318.247ZM58.8549 315.852C57.3187 315.852 56.3412 314.552 56.3412 312.242C56.3412 309.954 57.3295 308.633 58.8549 308.633C60.391 308.633 61.3793 309.954 61.3793 312.242C61.3793 314.552 60.391 315.852 58.8549 315.852ZM74.7047 318H77.8414V306.484H74.7047V310.91H70.3004V306.484H67.1637V318H70.3004V313.284H74.7047V318ZM93.4922 318H96.6289V306.484H86.0586V318H89.1953V308.848H93.4922V318ZM104.938 318.247C108.418 318.247 110.642 316.023 110.642 312.231C110.642 308.493 108.397 306.237 104.938 306.237C101.489 306.237 99.2336 308.504 99.2336 312.231C99.2336 316.013 101.457 318.247 104.938 318.247ZM104.938 315.852C103.402 315.852 102.424 314.552 102.424 312.242C102.424 309.954 103.412 308.633 104.938 308.633C106.474 308.633 107.462 309.954 107.462 312.242C107.462 314.552 106.474 315.852 104.938 315.852ZM119.831 318H122.904V306.484H117.651C114.858 306.484 113.042 308.031 113.042 310.48C113.042 312.135 114.009 313.316 115.578 313.811L112.548 318H116.039L118.596 314.283H119.831V318ZM117.962 312.081C116.867 312.081 116.158 311.415 116.158 310.491C116.158 309.471 116.856 308.815 117.962 308.815H119.831V312.081H117.962ZM131.846 318C134.457 318 136.089 316.689 136.089 314.67C136.089 313.23 135.026 312.178 133.49 311.984V311.898C134.671 311.716 135.574 310.642 135.574 309.406C135.574 307.58 134.134 306.484 131.739 306.484H125.97V318H131.846ZM129.053 308.472H130.89C131.921 308.472 132.502 308.955 132.502 309.814C132.502 310.685 131.879 311.168 130.729 311.168H129.053V308.472ZM129.053 312.983H130.89C132.222 312.983 132.931 313.499 132.931 314.477C132.931 315.476 132.254 316.013 131.03 316.013H129.053V312.983ZM141.852 318L146.418 310.717H146.504V318H149.587V306.484H146.514L141.949 313.671H141.863V306.484H138.78V318H141.852ZM161.978 306.484H151.987V308.848H155.414V318H158.551V308.848H161.978V306.484ZM174.605 310.771C174.454 308.16 172.488 306.237 169.362 306.237C165.914 306.237 163.712 308.536 163.712 312.231C163.712 315.991 165.914 318.247 169.384 318.247C172.413 318.247 174.444 316.496 174.615 313.778H171.694C171.489 315.035 170.673 315.787 169.416 315.787C167.869 315.787 166.892 314.498 166.892 312.231C166.892 310.008 167.859 308.697 169.405 308.697C170.705 308.697 171.511 309.557 171.683 310.771H174.605ZM183.601 318H186.673V306.484H181.42C178.627 306.484 176.812 308.031 176.812 310.48C176.812 312.135 177.779 313.316 179.347 313.811L176.318 318H179.809L182.366 314.283H183.601V318ZM181.732 312.081C180.636 312.081 179.927 311.415 179.927 310.491C179.927 309.471 180.625 308.815 181.732 308.815H183.601V312.081H181.732ZM199.585 318.247C202.721 318.247 204.623 316.765 204.623 314.627C204.623 313.316 203.86 312.36 202.195 312.049V311.963C203.527 311.662 204.311 310.76 204.311 309.503C204.311 307.451 202.528 306.237 199.671 306.237C196.502 306.237 194.923 307.752 194.686 310.008H197.619C197.748 309.116 198.392 308.601 199.542 308.601C200.745 308.601 201.282 309.17 201.282 309.933C201.282 310.717 200.777 311.243 199.499 311.243H197.963V313.166H199.52C200.842 313.166 201.518 313.628 201.518 314.53C201.518 315.357 200.809 315.905 199.531 315.905C198.36 315.905 197.597 315.433 197.372 314.444H194.396C194.633 317.076 196.803 318.247 199.585 318.247ZM209.193 320.976V318H216.938V320.976H219.796V315.626H218.088V306.484H208.871L208.495 312.274C208.388 313.832 208.065 315.153 207.228 315.626H206.347V320.976H209.193ZM214.962 315.626H210.418V315.54C210.934 314.767 211.17 313.703 211.256 312.479L211.514 308.837H214.962V315.626ZM229.533 314.477C229.254 315.357 228.373 315.927 227.213 315.927C225.623 315.927 224.57 314.799 224.57 313.155V312.962H232.509V312.006C232.509 308.504 230.393 306.237 227.052 306.237C223.647 306.237 221.487 308.622 221.487 312.296C221.487 315.98 223.614 318.247 227.159 318.247C230.006 318.247 232.069 316.732 232.412 314.477H229.533ZM227.084 308.558C228.481 308.558 229.437 309.567 229.49 311.039H224.613C224.71 309.6 225.709 308.558 227.084 308.558ZM245.555 310.771C245.405 308.16 243.439 306.237 240.313 306.237C236.865 306.237 234.663 308.536 234.663 312.231C234.663 315.991 236.865 318.247 240.334 318.247C243.364 318.247 245.394 316.496 245.566 313.778H242.644C242.44 315.035 241.623 315.787 240.367 315.787C238.82 315.787 237.842 314.498 237.842 312.231C237.842 310.008 238.809 308.697 240.356 308.697C241.656 308.697 242.461 309.557 242.633 310.771H245.555ZM248.074 318H253.445C256.163 318 257.903 316.41 257.903 313.907C257.903 311.404 256.163 309.814 253.445 309.814H251.211V306.484H248.074V318ZM252.929 312.124C254.057 312.124 254.798 312.833 254.798 313.886C254.798 314.938 254.068 315.658 252.929 315.658H251.211V312.124H252.929Z" fill="#999999"/>
    <defs>
        <linearGradient id="paint0_linear" x1="154.718" y1="188.795" x2="120.221" y2="28.0773" gradientUnits="userSpaceOnUse">
            <stop stop-color="#808080" stop-opacity="0.25"/>
            <stop offset="0.54" stop-color="#808080" stop-opacity="0.12"/>
            <stop offset="1" stop-color="#808080" stop-opacity="0.1"/>
        </linearGradient>
        <linearGradient id="paint1_linear" x1="30967.2" y1="-4028.84" x2="30822.6" y2="-4702.47" gradientUnits="userSpaceOnUse">
            <stop stop-color="#808080" stop-opacity="0.25"/>
            <stop offset="0.54" stop-color="#808080" stop-opacity="0.12"/>
            <stop offset="1" stop-color="#808080" stop-opacity="0.1"/>
        </linearGradient>
        <linearGradient id="paint2_linear" x1="9070.83" y1="459.539" x2="8869.11" y2="-480.233" gradientUnits="userSpaceOnUse">
            <stop stop-color="#808080" stop-opacity="0.25"/>
            <stop offset="0.54" stop-color="#808080" stop-opacity="0.12"/>
            <stop offset="1" stop-color="#808080" stop-opacity="0.1"/>
        </linearGradient>
        <linearGradient id="paint3_linear" x1="56771.9" y1="116833" x2="56771.9" y2="20931.9" gradientUnits="userSpaceOnUse">
            <stop stop-color="#808080" stop-opacity="0.25"/>
            <stop offset="0.54" stop-color="#808080" stop-opacity="0.12"/>
            <stop offset="1" stop-color="#808080" stop-opacity="0.1"/>
        </linearGradient>
        <linearGradient id="paint4_linear" x1="27568" y1="2205.41" x2="27568" y2="1516.43" gradientUnits="userSpaceOnUse">
            <stop stop-color="#808080" stop-opacity="0.25"/>
            <stop offset="0.54" stop-color="#808080" stop-opacity="0.12"/>
            <stop offset="1" stop-color="#808080" stop-opacity="0.1"/>
        </linearGradient>
        <linearGradient id="paint5_linear" x1="10887.2" y1="2920.89" x2="10887.2" y2="1958.62" gradientUnits="userSpaceOnUse">
            <stop stop-color="#808080" stop-opacity="0.25"/>
            <stop offset="0.54" stop-color="#808080" stop-opacity="0.12"/>
            <stop offset="1" stop-color="#808080" stop-opacity="0.1"/>
        </linearGradient>
        <clipPath id="clip0">
            <rect x="40" width="231" height="220" fill="white"/>
        </clipPath>
    </defs>
</svg>
