<svg width="81" height="81" viewBox="0 0 81 81" fill="none" xmlns="http://www.w3.org/2000/svg">
<circle opacity="0.2" cx="40.5" cy="40.5" r="40.5" fill="#73AC05"/>
<g opacity="0.8">
<g clip-path="url(#clip0)">
<path d="M40.5 38.4749C36.0265 38.4749 32.4 34.8484 32.4 30.3749C32.4 25.9014 36.0265 22.2749 40.5 22.2749C44.9735 22.2749 48.6 25.9014 48.6 30.3749C48.6 34.8484 44.9735 38.4749 40.5 38.4749Z" fill="#3E7D04"/>
<path d="M22.2763 57.1033C23.0612 47.4386 30.9054 42.5249 40.4663 42.5249C50.1617 42.5249 58.1274 47.1686 58.7208 57.1049C58.7444 57.5007 58.7208 58.7249 57.1996 58.7249C49.6958 58.7249 38.5453 58.7249 23.7482 58.7249C23.2404 58.7249 22.2336 57.6297 22.2763 57.1033Z" fill="#3E7D04"/>
</g>
</g>
<defs>
<clipPath id="clip0">
<rect x="22.275" y="22.2749" width="36.45" height="36.45" fill="white"/>
</clipPath>
</defs>
</svg>
