<svg width="31" height="28" viewBox="0 0 31 28" fill="none" xmlns="http://www.w3.org/2000/svg">
<path fill-rule="evenodd" clip-rule="evenodd" d="M7.83333 16.3332C9.122 16.3332 10.1667 15.2885 10.1667 13.9998C10.1667 12.7112 9.122 11.6665 7.83333 11.6665C6.54467 11.6665 5.5 12.7112 5.5 13.9998C5.5 15.2885 6.54467 16.3332 7.83333 16.3332Z" fill="#3E7D04"/>
<path fill-rule="evenodd" clip-rule="evenodd" d="M16.0001 16.3332C17.2887 16.3332 18.3334 15.2885 18.3334 13.9998C18.3334 12.7112 17.2887 11.6665 16.0001 11.6665C14.7114 11.6665 13.6667 12.7112 13.6667 13.9998C13.6667 15.2885 14.7114 16.3332 16.0001 16.3332Z" fill="#3E7D04"/>
<path fill-rule="evenodd" clip-rule="evenodd" d="M24.1666 16.3332C25.4553 16.3332 26.4999 15.2885 26.4999 13.9998C26.4999 12.7112 25.4553 11.6665 24.1666 11.6665C22.8779 11.6665 21.8333 12.7112 21.8333 13.9998C21.8333 15.2885 22.8779 16.3332 24.1666 16.3332Z" fill="#3E7D04"/>
</svg>
