<svg width="30" height="28" viewBox="0 0 30 28" fill="none" xmlns="http://www.w3.org/2000/svg">
<path fill-rule="evenodd" clip-rule="evenodd" d="M5.94118 5.53846C5.94118 6.94041 4.83506 8.07692 3.47059 8.07692C2.10612 8.07692 1 6.94041 1 5.53846C1 4.13651 2.10612 3 3.47059 3C4.83506 3 5.94118 4.13651 5.94118 5.53846ZM5.94118 14C5.94118 15.4019 4.83506 16.5385 3.47059 16.5385C2.10612 16.5385 1 15.4019 1 14C1 12.598 2.10612 11.4615 3.47059 11.4615C4.83506 11.4615 5.94118 12.598 5.94118 14ZM3.47059 25C4.83506 25 5.94118 23.8635 5.94118 22.4615C5.94118 21.0596 4.83506 19.9231 3.47059 19.9231C2.10612 19.9231 1 21.0596 1 22.4615C1 23.8635 2.10612 25 3.47059 25ZM10.7353 3C9.90687 3 9.23529 3.67157 9.23529 4.5V6.57692C9.23529 7.40535 9.90687 8.07692 10.7353 8.07692H27.5C28.3284 8.07692 29 7.40535 29 6.57692V4.5C29 3.67157 28.3284 3 27.5 3H10.7353ZM10.7353 11.4615C9.90687 11.4615 9.23529 12.1331 9.23529 12.9615V15.0385C9.23529 15.8669 9.90687 16.5385 10.7353 16.5385H27.5C28.3284 16.5385 29 15.8669 29 15.0385V12.9615C29 12.1331 28.3284 11.4615 27.5 11.4615H10.7353ZM9.23529 21.4231C9.23529 20.5946 9.90687 19.9231 10.7353 19.9231H27.5C28.3284 19.9231 29 20.5946 29 21.4231V23.5C29 24.3284 28.3284 25 27.5 25H10.7353C9.90687 25 9.23529 24.3284 9.23529 23.5V21.4231Z" fill="#999999"/>
</svg>
