<svg width="31" height="28" viewBox="0 0 31 28" fill="none" xmlns="http://www.w3.org/2000/svg">
<path fill-rule="evenodd" clip-rule="evenodd" d="M24 5H19.5C19.5 5 18 4.74264 18 3.5C18 2.25736 19.5 2 19.5 2H27V9.5C27 9.5 27 11 25.5 11C24 11 24 9.5 24 9.5V5ZM10.5 23H6V18.5C6 18.5 6 17 4.5 17C3 17 3 18.5 3 18.5V26H10.5C10.5 26 12 25.7426 12 24.5C12 23.2574 10.5 23 10.5 23ZM24 18.5V23H19.5C19.5 23 18 23 18 24.5C18 26 19.5 26 19.5 26H27V18.5C27 18.5 26.7426 17 25.5 17C24.2574 17 24 18.5 24 18.5ZM6 9.5V5H10.5C10.5 5 12 5 12 3.5C12 2 10.5 2 10.5 2H3V9.5C3 9.5 3.25736 11 4.5 11C5.74264 11 6 9.5 6 9.5Z" fill="#3E7D04"/>
</svg>
